<svg width="352" height="308" viewBox="0 0 352 308" fill="none" xmlns="http://www.w3.org/2000/svg">
<path d="M112.486 304.15C51.8746 293.229 2.18407 228.795 0.545917 157.262C-0.546184 108.664 0.54605 60.0655 0 11.467C0 3.27629 2.73022 0 10.3749 0C78.6312 3.2763 137.058 69.8944 139.789 147.98C141.427 197.67 140.881 246.815 140.335 296.505C140.335 305.788 137.605 309.065 129.414 307.426C123.953 305.788 118.493 305.242 112.486 304.15Z" fill="#C10606"/>
<path d="M197.67 291.045C167.637 268.111 151.802 237.532 151.256 197.67C156.17 193.848 160.538 194.94 164.907 194.94C193.848 194.94 223.334 194.94 252.275 194.94C301.419 194.94 341.281 233.164 350.018 287.769C352.748 305.242 351.11 307.972 335.821 307.972C307.426 307.972 279.031 307.972 250.637 307.972C232.071 307.426 214.597 302.512 197.67 291.045Z" fill="#15A600"/>
<path d="M240.808 57.3355C240.808 73.1709 241.354 87.9143 238.624 102.658C230.979 141.973 199.308 175.282 164.907 180.197C152.894 181.835 150.164 180.197 150.71 165.999C152.348 140.881 149.072 115.763 151.802 90.6446C156.717 43.1382 187.295 7.09884 228.795 1.09229C238.624 -0.545864 241.354 3.27647 240.808 13.1054C240.262 27.3027 240.808 41.5 240.808 57.3355Z" fill="#15A600"/>
</svg>
