<svg width="100" height="171" viewBox="0 0 100 171" fill="none" xmlns="http://www.w3.org/2000/svg">
<path d="M31.8967 86.2452C14.7096 83.1484 0.619317 64.8774 0.154801 44.5936C-0.154877 30.8129 0.154839 17.0323 0 3.25161C0 0.92903 0.774184 0 2.94193 0C22.2968 0.929033 38.8645 19.8194 39.6387 41.9613C40.1032 56.0516 39.9484 69.9871 39.7935 84.0774C39.7935 86.7097 39.0193 87.6387 36.6968 87.1742C35.1484 86.7097 33.6 86.5549 31.8967 86.2452Z" fill="#C10606"/>
<path d="M56.0514 82.5291C47.5353 76.0259 43.045 67.3549 42.8901 56.0517C44.2837 54.9678 45.5224 55.2775 46.7611 55.2775C54.9676 55.2775 63.3288 55.2775 71.5353 55.2775C85.4708 55.2775 96.774 66.1162 99.2514 81.6C100.026 86.5549 99.5611 87.3291 95.2257 87.3291C87.174 87.3291 79.1224 87.3291 71.0708 87.3291C65.8063 87.1742 60.8514 85.7807 56.0514 82.5291Z" fill="#15A600"/>
<path d="M68.2837 16.2581C68.2837 20.7485 68.4385 24.9291 67.6643 29.1098C65.4966 40.2581 56.5159 49.7033 46.7611 51.0969C43.3546 51.5614 42.5804 51.0969 42.7353 47.071C43.1998 39.9485 42.2708 32.8259 43.045 25.7033C44.4385 12.2323 53.1095 2.01298 64.8772 0.309749C67.6643 -0.154767 68.4385 0.929099 68.2837 3.7162C68.1288 7.742 68.2837 11.7678 68.2837 16.2581Z" fill="#15A600"/>
<path d="M5.03356 113.765C3.69128 113.765 2.68455 113.43 1.34226 112.423C0.671121 111.416 0.335571 110.41 0 108.732C0 107.725 0.33555 106.383 1.34226 105.376C2.34898 104.369 3.35571 104.034 5.03356 104.034C5.7047 104.034 6.37585 104.034 6.71142 104.369C7.04699 104.705 7.38252 104.705 7.71809 104.705C8.05366 104.705 8.0537 105.041 8.38927 105.376C9.39598 106.383 9.73153 107.39 9.73153 108.732C9.73153 109.403 9.73151 110.074 9.39594 110.745C9.06037 111.416 8.72484 111.752 8.38927 112.423C7.71813 113.094 6.71142 113.765 5.03356 113.765ZM8.72486 154.705V170.477H0.67108V117.792H8.72486V147.658H15.1007V155.041H8.72486V154.705Z" fill="#C10606"/>
<path d="M19.7985 167.121C18.4562 167.121 17.4494 166.786 16.1072 165.779C15.436 164.772 15.1005 163.765 14.7649 162.088C14.7649 161.081 15.1004 159.739 16.1072 158.732C17.1139 157.725 18.1206 157.39 19.7985 157.39C20.4696 157.39 21.1407 157.39 21.4763 157.725C21.8119 158.061 22.1474 158.061 22.483 158.061C22.8186 158.061 22.8186 158.396 23.1542 158.732C24.1609 159.739 24.4964 160.745 24.4964 162.088C24.4964 162.759 24.4964 163.43 24.1608 164.101C23.8253 164.772 23.4897 165.108 23.1542 165.779C22.483 166.45 21.4763 167.121 19.7985 167.121ZM15.1005 154.705V147.323H27.8521V117.457H35.9058V154.369H15.1005V154.705ZM30.8723 167.121C29.53 167.121 28.5233 166.786 27.1811 165.779C26.5099 164.772 26.1743 163.765 25.8387 162.088C25.8387 161.081 26.1743 159.739 27.1811 158.732C28.1878 157.725 29.1944 157.39 30.8723 157.39C31.5434 157.39 32.2145 157.39 32.5501 157.725C32.8857 158.061 33.2213 158.061 33.5569 158.061C33.8925 158.061 33.8924 158.396 34.228 158.732C35.2347 159.739 35.5703 160.745 35.5703 162.088C35.5703 162.759 35.5703 163.43 35.2347 164.101C34.8992 164.772 34.5635 165.108 34.228 165.779C33.2213 166.45 32.2145 166.786 30.8723 167.121Z" fill="#C10606"/>
<path d="M50 154.705V170.477H41.9463V117.792H50V147.658H56.3758V155.041H50V154.705Z" fill="#C10606"/>
<path d="M56.0403 154.705V147.322H92.282V132.222V130.879V127.859C91.2753 125.846 89.933 124.839 87.584 124.839H64.4296V115.443L76.1745 98.3291H85.9062L72.8188 117.457H89.933C92.6175 117.457 94.2954 117.792 95.3021 118.463C96.3088 119.134 97.3155 119.806 97.9866 120.812C98.6578 121.819 99.3289 123.161 99.6645 124.839C100 126.517 100 128.195 100 129.537V154.369H56.0403V154.705Z" fill="#C10606"/>
</svg>
